#!OML:ASF I:\Actors\actors\Patient Classification 2\Patient 1\Session 1\actor1.ASF
:FULLY-SPECIFIED
:DEGREES
351
root -0.336467 18.8947 4.91438 7.31919 3.47519 -0.506599
lowerback 21.6184 -1.02914 1.3957
upperback 1.90532 -0.809115 1.84998
thorax -10.0148 -0.393131 1.47977
lowerneck -20.5246 -2.36749 -4.57059
upperneck -5.24747 -2.2357 6.4951
head 1.99964 -0.817169 2.82056
rclavicle 5.76476e-015 4.37326e-015
rhumerus 46.2114 10.7761 -62.6675
rradius 45.4512
rwrist 2.64985
rhand -8.30694 -30.6295
rfingers 7.12502
rthumb 17.6135 -59.8517
lclavicle 5.76476e-015 4.37326e-015
lhumerus 47.9971 -11.8124 74.1984
lradius 47.4058
lwrist 24.8609
lhand -15.6846 -26.0326
lfingers 7.12502
lthumb 10.5044 3.68494
rfemur -1.5735 1.67804 13.2522
rtibia 2.14687e-014
rfoot -17.1888 -16.4258
rtoes 0.865545
lfemur -17.2125 -2.374 -14.0177
ltibia 24.0998
lfoot -15.2163 7.86065
ltoes -55.619
352
root -0.332852 18.8932 4.95977 7.17554 3.49698 -0.839259
lowerback 21.1062 -1.09617 1.87393
upperback 1.77146 -0.79306 1.88898
thorax -9.89066 -0.406039 1.23583
lowerneck -20.5784 -2.36403 -4.53057
upperneck -5.02983 -2.24411 6.36925
head 2.08137 -0.824082 2.77041
rclavicle 7.55382e-015 9.54166e-015
rhumerus 45.8255 10.9743 -61.845
rradius 45.9318
rwrist 2.61359
rhand -8.61866 -30.7081
rfingers 7.12502
rthumb 17.3135 -59.9569
lclavicle 7.55382e-015 9.54166e-015
lhumerus 47.6931 -11.9345 73.2529
lradius 47.8241
lwrist 24.4473
lhand -14.7994 -26.3765
lfingers 7.12502
lthumb 11.3582 3.29589
rfemur -1.27398 1.66293 13.6396
rtibia 8.74653e-015
rfoot -17.2782 -16.2763
rtoes 0.838003
lfemur -16.9331 -2.41224 -13.6608
ltibia 24.1662
lfoot -15.473 7.86283
ltoes -55.6378
353
root -0.324544 18.8891 4.99826 6.82582 3.50366 -1.44591
lowerback 20.8663 -1.2025 2.68751
upperback 1.70543 -0.741893 1.97458
thorax -9.84307 -0.414964 0.847161
lowerneck -21.0849 -2.37486 -4.41601
upperneck -4.28791 -2.27786 6.4117
head 2.10272 -0.819807 2.52101
rclavicle 1.49089e-014 1.43125e-014
rhumerus 45.4548 11.1564 -61.2785
rradius 46.2111
rwrist 2.50262
rhand -8.53931 -30.8738
rfingers 7.12502
rthumb 17.3899 -60.1159
lclavicle 1.49089e-014 1.43125e-014
lhumerus 47.3001 -12.1061 72.4262
lradius 48.2841
lwrist 24.0402
lhand -14.1772 -26.4896
lfingers 7.12502
lthumb 11.9582 3.14888
rfemur -0.79092 1.71427 14.316
rtibia -3.18055e-015
rfoot -17.3579 -16.1598
rtoes 0.747155
lfemur -16.4167 -2.54942 -13.0182
ltibia 24.1812
lfoot -15.7349 7.94735
ltoes -55.6273
354
root -0.324567 18.8871 5.03883 6.60222 3.42261 -1.64788
lowerback 20.4498 -1.2143 2.93215
upperback 1.63736 -0.717326 1.98626
thorax -9.69301 -0.413643 0.705996
lowerneck -21.1424 -2.37046 -4.42677
upperneck -4.00521 -2.27968 6.42606
head 2.19781 -0.816485 2.52592
rclavicle 8.94531e-015 -2.38542e-014
rhumerus 45.0714 11.4531 -60.6745
rradius 46.4314
rwrist 2.1575
rhand -8.39481 -31.0958
rfingers 7.12502
rthumb 17.5289 -60.3256
lclavicle 8.94531e-015 -2.38542e-014
lhumerus 46.7452 -12.3183 71.6209
lradius 48.8596
lwrist 23.9881
lhand -13.7358 -26.3944
lfingers 7.12502
lthumb 12.3838 3.21875
rfemur -0.420117 1.78796 14.5605
rtibia -1.35174e-014
rfoot -17.4761 -16.047
rtoes 0.615132
lfemur -15.9255 -2.79473 -12.7968
ltibia 24.0687
lfoot -15.9765 8.17661
ltoes -55.6042
355
root -0.338886 18.8882 5.08431 6.62925 3.22716 -1.27878
lowerback 19.6991 -1.09577 2.34261
upperback 1.53358 -0.729652 1.92563
thorax -9.38762 -0.396651 0.964643
lowerneck -21.0676 -2.3329 -4.37318
upperneck -3.79081 -2.25027 6.2929
head 2.24793 -0.807658 2.47748
rclavicle 0 9.14409e-015
rhumerus 44.5067 11.6631 -60.8268
rradius 46.3757
rwrist 2.48147
rhand -8.24979 -30.9955
rfingers 7.12502
rthumb 17.6685 -60.2128
lclavicle 0 9.14409e-015
lhumerus 45.9866 -12.5299 70.9257
lradius 49.5516
lwrist 24.3043
lhand -13.3982 -26.1057
lfingers 7.12502
lthumb 12.7094 3.48759
rfemur -0.291925 1.8864 14.2016
rtibia 7.15625e-015
rfoot -17.6114 -15.9502
rtoes 0.456124
lfemur -15.5982 -3.10535 -13.1545
ltibia 23.8303
lfoot -16.2387 8.51894
ltoes -55.4388
356
root -0.35896 18.8892 5.12858 6.71482 2.97574 -0.685551
lowerback 18.9047 -0.929629 1.43189
upperback 1.43139 -0.741192 1.83468
thorax -9.05052 -0.368498 1.37196
lowerneck -21.0297 -2.30751 -4.31024
upperneck -3.53171 -2.23691 6.09094
head 2.31615 -0.809114 2.40463
rclavicle 2.38542e-015 -9.93923e-015
rhumerus 44.024 12.0911 -60.5498
rradius 46.4037
rwrist 2.30528
rhand -8.18475 -31.1108
rfingers 7.12502
rthumb 17.7311 -60.3224
lclavicle 2.38542e-015 -9.93923e-015
lhumerus 45.1706 -12.7695 70.4209
lradius 50.1724
lwrist 24.7724
lhand -13.0736 -25.8087
lfingers 7.12502
lthumb 13.0222 3.76483
rfemur -0.2406 2.00782 13.6019
rtibia -3.97569e-015
rfoot -17.6843 -15.8981
rtoes 0.434158
lfemur -15.2911 -3.30454 -13.7512
ltibia 23.49
lfoot -16.4181 8.81734
ltoes -55.3059
357
root -0.372064 18.8877 5.16523 6.65523 2.76366 -0.357203
lowerback 18.3337 -0.821177 0.921691
upperback 1.36809 -0.723875 1.77286
thorax -8.79842 -0.342925 1.5798
lowerneck -21.121 -2.30206 -4.30577
upperneck -3.15989 -2.2386 5.98852
head 2.44074 -0.810338 2.37046
rclavicle -2.98177e-015 1.35174e-014
rhumerus 43.3979 12.3838 -60.759
rradius 46.2523
rwrist 2.54994
rhand -8.25257 -31.069
rfingers 7.12502
rthumb 17.6658 -60.2865
lclavicle -2.98177e-015 1.35174e-014
lhumerus 44.3297 -13.0846 70.0412
lradius 50.7447
lwrist 25.3089
lhand -12.7602 -25.6664
lfingers 7.12502
lthumb 13.3244 3.88759
rfemur -0.077881 2.13556 13.2783
rtibia -3.18055e-015
rfoot -17.7125 -15.8558
rtoes 0.297841
lfemur -14.8536 -3.37555 -14.0902
ltibia 23.133
lfoot -16.5094 9.00491
ltoes -55.2951
358
root -0.378079 18.884 5.1939 6.49691 2.60343 -0.256408
lowerback 17.9228 -0.763751 0.769189
upperback 1.33012 -0.689737 1.74743
thorax -8.61145 -0.322446 1.62259
lowerneck -21.2106 -2.31962 -4.28229
upperneck -2.80992 -2.27282 5.864
head 2.55951 -0.82937 2.32373
rclavicle 7.15625e-015 7.95139e-015
rhumerus 42.6566 12.6993 -61.0395
rradius 46.1779
rwrist 2.8467
rhand -8.23909 -31.1562
rfingers 7.12502
rthumb 17.6788 -60.3725
lclavicle 7.15625e-015 7.95139e-015
lhumerus 43.3836 -13.446 69.7931
lradius 51.348
lwrist 25.7905
lhand -12.4927 -25.6348
lfingers 7.12502
lthumb 13.5821 3.90215
rfemur 0.153813 2.24924 13.191
rtibia 3.97569e-015
rfoot -17.6935 -15.822
rtoes -0.102678
lfemur -14.3819 -3.4079 -14.2042
ltibia 22.8631
lfoot -16.6089 9.11035
ltoes -55.252
359
root -0.383947 18.8808 5.21957 6.37946 2.45283 -0.202884
lowerback 17.4721 -0.716146 0.660023
upperback 1.27486 -0.657123 1.7422
thorax -8.42136 -0.304021 1.66291
lowerneck -21.1712 -2.32121 -4.28469
upperneck -2.52394 -2.28345 5.78637
head 2.64081 -0.836988 2.29816
rclavicle -8.84592e-015 1.70955e-014
rhumerus 41.6389 12.9341 -61.8112
rradius 46.1654
rwrist 3.53271
rhand -8.12221 -31.0912
rfingers 7.12502
rthumb 17.7912 -60.2974
lclavicle -8.84592e-015 1.70955e-014
lhumerus 42.3132 -13.8184 69.6644
lradius 51.9235
lwrist 26.0858
lhand -12.3436 -25.6577
lfingers 7.12502
lthumb 13.7258 3.86959
rfemur 0.330828 2.35438 13.1555
rtibia 3.18055e-015
rfoot -17.6514 -15.7964
rtoes -0.274446
lfemur -14.0335 -3.36924 -14.2655
ltibia 22.6995
lfoot -16.6875 9.16201
ltoes -55.2317
360
root -0.390297 18.8787 5.24318 6.32011 2.35355 -0.21764
lowerback 16.9538 -0.701917 0.616212
upperback 1.22453 -0.653682 1.76562
thorax -8.18774 -0.301745 1.70283
lowerneck -21.1821 -2.29271 -4.30276
upperneck -2.19631 -2.25159 5.74176
head 2.74092 -0.82094 2.28882
rclavicle 2.127e-014 -1.78906e-014
rhumerus 40.5125 13.1668 -62.7462
rradius 46.1997
rwrist 4.36287
rhand -8.11494 -30.9374
rfingers 7.12502
rthumb 17.7982 -60.1429
lclavicle 2.127e-014 -1.78906e-014
lhumerus 41.2405 -14.1588 69.6216
lradius 52.4403
lwrist 26.2726
lhand -12.0633 -25.5699
lfingers 7.12502
lthumb 13.996 3.9389
rfemur 0.45624 2.40982 13.1997
rtibia -7.95139e-016
rfoot -17.6466 -15.7524
rtoes -0.364452
lfemur -13.8039 -3.25647 -14.2455
ltibia 22.5865
lfoot -16.695 9.16049
ltoes -55.3549
